<svg id="Calque_3" data-name="Calque 3" xmlns="http://www.w3.org/2000/svg" viewBox="0 0 144.68 260"><path d="M58.52,117.83l-1.7,1.4-1.71-6.76-1.45-3.07L43.55,95,41.19,79.91l7-19.53L35.94,78.64l.26,9.7-6.3-7.66L27,73.15V57.45l-.79-6.64,4.73-25L47.36,0,26.22,22.47,20.7,46.34,11.29,31.49,13,10.89,6.74,32.09,20.31,57l1.05,15.24,1.58,8.68-16.2-13L3,55.83,1.75,42.47,0,57.62,4.38,72.09l3.41,3.06.53,2.64L36.68,97.87,47.1,112.09l1,11.4L45.79,127l-6.22-4.26L16.5,114.83l7.72,16.08,9.45,8.69,12,2.31-.4,8.47,1.27,2.43-.08,18.68-6.31,13.36v6.81l-3.06,5,5.69,28.26L73.36,260V117.83l-9.58.64Z"/><path d="M143,42.47l-1.19,13.36-3.66,12.08-15.75,13,1.53-8.68,1-15.24,13.19-24.93-6-21.2,1.62,20.6-9.15,14.85-5.36-23.87L98.64,0l16,25.79,4.6,25-.77,6.64v15.7l-2.8,7.53-6.13,7.66.25-9.7L97.87,60.38l6.77,19.53L102.34,95,92.51,109.4l-1.4,3.07-1.66,6.76-1.66-1.4-5.11.64-9.32-.64V260l29.7-35.06,5.53-28.26-3-5v-6.81l-6.13-13.36-.09-18.68,1.24-2.43-.39-8.47L112,139.6l9.19-8.69,7.5-16.08-22.43,7.89-6,4.26L98,123.49l.93-11.4L109,97.87l27.57-20.08.52-2.64,3.31-3.06,4.26-14.47Z"/></svg>