<svg xmlns="http://www.w3.org/2000/svg" height="48" viewBox="0 96 960 960" width="48"><path d="M480 566Zm-30-385q14.328-8 30.164-8Q496 173 510 181l300 173q14.25 8.426 22.125 22.213T840 406v157q-13.655-10.156-28.828-17.578Q796 538 780 532v-96l-149 87q-59 14-106.5 51T450 664v-71L180 437v309l265 153q10 21 23.5 40.5T499 976q-12 5-25 3.5t-24-8.5L150 798q-14.25-8.426-22.125-22.213T120 746V406q0-16 7.875-29.787Q135.75 362.426 150 354l300-173Zm30 52L213 387l267 155 266-155-266-154Zm220 667 113-113-21-21-77 77V672h-30v171l-77-77-21 21 113 113Zm-10 76q-78 0-134-55.399-56-55.4-56-134Q500 708 556 652t134-56q78 0 134 55.867Q880 707.735 880 787q0 78.435-56 133.718Q768 976 690 976Z"/></svg>